<svg xmlns="http://www.w3.org/2000/svg" id="Layer_1" data-name="Layer 1" viewBox="0 0 841.89 241.37">
  <g id="OdmFfU.tif">
    <g>
      <path d="M808.21,38.94c-3.36,6.55-5.62,1.85-9.32.95-9.69-2.35-35.79,7.37-45.91,11.05-19.3,7.02-37.93,15.62-55.6,26.03,2.39,5.77.34,11.18-4.36,14.99-3.59,2.91-12.63,7.56-15.92,2.64-5.17-7.73,7.76-14.41,12.5-18.6l-5.61-7.67c-6.33,3.18-9.65,9.93-15,14.35-7.74,6.39-20.16,9.68-21.76-3.68-6.84,7.04-20.16,30.89-30.8,30.78s-4.99-18.14-3.2-23.97c1.24-4.02,3.26-8.26,4.88-12.15-4.25,1.02-10.32,1.75-13.73,4.66-2.24,1.91-4.67,7.28-6.74,9.97-4.09,5.31-15.81,20.58-23.29,18-1.43-.5-.81-2.9-2.42-3.25,1.26,3.11-4.2,7.77-5.3,4.24s6.56-19.91,7.97-24.27c-3.8,3.56-13.38,17.7-19.38,15.03s1.96-16.6,4.99-19.71c2.24-2.29,4.25-3.35,5.68.32-1.38,5.18-6.61,8.87-6.67,14.37.64.7,5.27-3.02,6.03-3.66,11.19-9.45,14.43-16.37,22.07-28.06,3.76-5.76,7.64-11.4,12.06-16.68l-28.82,2.64c-2.62.82-6.02,6.23-7.44,8.6-7.88,13.19-22.18,52.15-22,66.91.04,3.11,2.94,9.45-3.52,7.51-7.58-2.27-2.88-17.61-1.62-22.71,1.82-7.38,4.39-14.6,6.5-21.89-10.02,6.44-18.96,17.72-29.86,22.62-15.41,6.92-17.68-6.42-12.31-17.95-9.91,4.95-20.56,26.84-34.1,20.33-12.16-5.85,5.63-31.34,16.06-28.04,6.97,2.2,2.32,9.91-.72,13.37-1.36,1.54-10.25,8.05-8.68,9.7,12.6-1.38,16.48-14.48,27.63-19.5,1.35-.61,3-.28,4.21-1.14,6.45-4.61,8.88-12.02,18.79-15.97,15.75-6.28,8.94,15.43.59,13.94-4.01-.72.13-6.11-.36-6.7-5.49,2.45-20.2,20.72-16.44,26.08,2.57,1.7,6.11-.37,8.65-1.47,11.28-4.92,19.22-14.74,29.07-21.75l11.58-27.91c0-3-7.84-.94-9.66-1.06l-1.1-3.26c7.97-.98,13.6-.91,19.02-7.41,1.69-2.03,11.19-19.18,14.82-14.01,3.01,4.27-7.26,11.56-6.4,16.06,2.99-.11,6.04.17,9.03,0,11.35-.65,22.81-3.5,34.15-3.99,2.96-.13,10.85-1.08,7.34,3.31-2.94,3.68-9.91,1.74-12.08,3.31-.47.34-5.03,8.03-6.33,9.71-5.09,6.57-11.62,12.11-17.06,18.37-1.19,1.38-3.04,3.54-3.33,5.36,4.51-1.95,13.53-11.27,16.46-3.39l17.34-3.62c6.48-10.74,21.78-42.92,34.62-45.59,4.92-1.02,7.69,1.19,7.6,6.19-.19,9.95-16.8,29.68-23.8,37.07-7.41,7.82-15.22,11.38-18.45,22.33-1.35,4.57-3.75,14.06,4.29,10.29,5.05-2.37,20.2-20.39,24.51-25.63,1.85-2.24,2.9-5.03,4.72-7.31,3.32-4.17,12.13-12.59,17.43-7.4,3.8,3.73.04,8.89-2.74,12.04-1.36,1.54-10.25,8.05-8.68,9.7,9.3-.87,14.95-9.24,21.06-15.37,4.51-4.52,2.6-2.97,5.15-8.22,2.4-4.94,14.18-13.21,19.59-12.44,4.36.63,6.15,6.39,2.62,9.21-3.65.6-8.67-1.91-11.98.06-5.63,3.35-1.87,17.81,1.26,17.32.48-.07,6.41-4.19,7.81-4.94,23.02-12.24,55.8-26.08,81.13-31.92,6.7-1.55,18.72-5.41,23.31.89v2ZM656.92,33.6c-1.99-1.97-10.03,6.79-11.36,8.36-6.53,7.77-11.67,17.92-16.08,27.02,7.25-6.8,14.99-14.17,21.01-22.1,2.92-3.85,6.3-8.21,6.43-13.28ZM608.05,44.28c-1.15-.07-2.23-.13-3.33.35-2.07.89-8.75,11.19-10.33,13.73-1.8,2.89-3.93,6.09-5.07,9.29,4.82-4.43,10.06-9.83,14.03-15.04.82-1.08,5.65-7.43,4.7-8.32ZM656.26,78.33c1.58-.45,11.78-10.94,7.03-11.33-3.65-.3-7.47,8.01-7.03,11.33ZM593.33,77.67c-5.55,2.19-11.68,5.95-13.38,12.01l13.38-12.01ZM680.44,91.59c2.11,3.33,8.56-2.95,9.84-5.03.81-1.32,3.44-6.99.34-5.68-2.66,1.12-12.37,7.27-10.18,10.71ZM580.61,97.69c1.59,1.42,10.12-7.55,11.36-9.03.53-.63,3.15-3.82,2.69-4.32-1.62.61-15.81,11.77-14.05,13.35ZM470.83,101.7c1.58-.45,11.78-10.94,7.03-11.33-3.65-.3-7.47,8.01-7.03,11.33Z"/>
      <path d="M69.18,119.72c.8.7,14.63-1.86,17.07-1.99,3.17-.16,7.83-.8,8.89,3.1-1.22,5.83-5.89,3.85-10.23,4.24-6.62.6-17.84,1.26-22.8,5.97-2.74,2.61-9.62,17.47-11.59,21.82-2.35,5.18-8.78,24.85-12.83,26.6-1.1.47-2.18.41-3.33.35-.34-3.34,1.13-6.42,2.18-9.51,4.39-13.01,11.41-25.61,16.45-38.4.98-4.56-6.27-1.85-3.97-7.2,1.49-3.47,6.88-1.47,10.12-4.64,2.97-2.91,4.65-11.33,3.13-15.15-3.58-9.01-17.86-5.59-24.93-6.51-3.98-.52-4.65-4.1-2.32-7.06s18.12-9.1,22.6-10.84c24.34-9.42,70.71-22.96,95.58-14.21,4.34,1.53,12,5.12,8.62,10.66-4.06,6.64-7.14-.77-10.74-2.54-8.5-4.17-38.05-1.48-47.95.74-6.35,1.42-12.06,7.91-15.77,12.98l-18.19,31.59ZM70.5,103.69c1.64-3.73,16.23-21.78,14.06-24.7l-30.78,10.03c-1.71,2.52,5.58,3.82,7.15,4.55,4.58,2.11,7.17,4.57,8.25,9.7l1.32.43Z"/>
      <path d="M251.08,110.55c1.96,2.09.5,6.32-2.03,7.36-1.53.63-3.66-1.37-5.57-1.5-11.15-.79-49.64,17.19-61.41,22.77-13.42,6.37-30.13,14.31-42.28,22.59-7.33,4.99-5.46,5.93-8.91,13.15-5.45,11.42-16.37,32.28-26.56,39.61-7.3,5.25-13.35.83-12.33-7.61,1.24-10.23,16.68-25.77,24.04-32.79,3.6-3.43,8.77-6.3,11.68-10.38,3.76-5.28,5.7-13.68,8.42-19.65l-7.13,5.57c-2.05,1.01-5.44,1.98-7.26.09-1.27-1.32-.32-3.49-1.67-3.99-1.92,4.3-11.11,11.58-15.78,8.04-2.31-1.75-1.06-7.79-5.18-6.61-2.95.84-8.38,11.13-14.1,9.18-5.48-8.76,4.16-22.43,13.96-23.29,12.3-1.08,5.68,5.24,7.32,12.06.41,1.72,1.81,4.15,3.89,3.86,2.65-.37,11.27-8.53,13.22-10.92,1.15-1.41,7.42-13.36,10.41-9.05,2.27,3.27-5.86,10.58-6.41,14.39-.15,1.03-.02,1.15,1.01,1.01,6.58-.9,10.08-14.65,13.91-17.84,2.37-1.97,4.73-.85,4.94,2.23.54,7.95-7.37,19.15-9.11,26.66-.2.88.09,1.3.96.95,2.75-1.11,8.15-5.09,11.28-6.78,23.93-12.99,54.98-29.74,80.81-37.58,4.26-1.29,16.59-5.02,19.88-1.52ZM99.97,138.43c-.59-.58-6.7,4.31-7.36,5.01-1.88,1.98-3.86,4.84-3.35,7.67,4.01,2.02,11.34-12.06,10.71-12.68ZM97.96,208.53c5.35-.11,9.67-6.4,12.59-10.47,4.72-6.58,8.81-14.64,11.5-22.24-6.95,6.47-14.66,13.91-19.95,21.82-2.19,3.28-4.71,6.71-4.14,10.89Z"/>
      <path d="M432.66,112.38c-5.13,4-15.05,15.22-21.23,16.54-14.47,3.08-5.77-18.71-4.33-25.02.19-.84.42-2.06-.86-1.53-1.48.61-7.72,7.38-9.77,8.95-1.55,1.19-7.23,3.95-7.62,4.41-3.18,3.74-3.07,9.65-9.05,14.34-14.93,11.72-16.78-15.61-10.77-24.09,4.81-2.3,7.14-4.66,12.95-3.47s6.64,9.07,7.5,9.15c3.88-1.39,7.22-3.78,10.6-6.09,2.02-1.38,7.82-5.37,9.06-6.98,2.71-3.51,6.67-14.14,9.6-19.13,4.18-7.11,17.2-27.21,25.72-27.82,4.61-.33,6.49,2.65,6.3,6.95-.39,8.78-15.23,26.79-21.42,33.43-4.91,5.26-14.18,11.86-16.87,17.89-4.94,11.06-2.65,18.51,8.83,8.81,2.2-1.86,12.57-11.37,13.68-13.06,3.27-4.94,6.47-15.65,9.62-21.78,4.69-9.12,16.09-28.46,24.79-33.36,9.6-5.42,8.76,6,6.24,12.23-6.87,17.03-21.91,27.49-33.29,40.24-3.7,4.15-6.6,22.47-6.99,28.42-.4,6.11.3,12.27.34,18.36l-2.18,1.23c-3.19.45-3.97-5.86-4.18-8.26-.94-10.49,1.35-20.22,3.33-30.37ZM444.72,96.36c8.28-8.43,18.08-18.02,24.64-27.83,1.44-2.16,8.03-13.54,1.08-10.27-5.74,2.7-19.67,25.83-23.16,32.32-.95,1.77-2.18,3.82-2.56,5.79ZM417.95,97.69c7.87-7.82,16.32-16.69,22.63-25.83,1.35-1.95,10.1-14.73,2.16-11.87-4.25,1.53-14.8,19.21-17.55,23.9-2.59,4.42-5.4,9.02-7.24,13.8ZM385.8,111.71c-.04-4.79-3.28-9.27-8.41-6.72-2.27,3.12,5.54,7.5,8.41,6.72ZM385.14,115.73c-5.87-.53-8.73-3.61-12.71-7.35-.57,5.45-1.27,11.91,2.67,16.38,3.89,1.9,8.98-5.93,10.04-9.03Z"/>
      <path d="M375.09,83.68c1.13,3.71-1.66,7.1-3.73,9.95-11.38,15.74-50.08,49.54-69.2,52.5-16.39,2.54-30.44-9.01-28.63-25.89,3.46-32.25,48.69-83.43,81.82-85.97,11.85-.91,18.1,5.72,16.23,17.52-1.08,6.8-16.24,35.25-21.96,38.85-3.6,2.27-6.07,1.02-6.06-3.31.02-5.72,6.59-7.96,10.12-12,4.49-5.14,13.01-22.07,12-28.68-1.51-9.86-19.49-3.6-25.19-1.16-16.52,7.06-34.13,22.52-44.66,36.91-8.76,11.98-20.85,33.92-14.98,48.85,3.53,8.99,10.94,8.76,19.52,7.76,19.13-2.23,46.18-28.07,59.33-41.64,2.24-2.31,12.29-15.78,15.37-13.69Z"/>
      <path d="M567.32,71.55c-2.16-4.09-1.09-9.51,4.6-7.59,3.09,4.54,1.35,9-4.6,7.59Z"/>
    </g>
  </g>
</svg>