<svg xmlns="http://www.w3.org/2000/svg" id="Layer_1" data-name="Layer 1" viewBox="0 0 1000 1000">
  <defs>
    <style>
      .cls-1 {
        fill: #fff;
      }
    </style>
  </defs>
  <rect x="-22.31" y="-22.31" width="1044.62" height="1044.62"/>
  <g>
    <g>
      <circle cx="500" cy="500" r="211.98"/>
      <path d="M663.32,664.7v-2.87h16.28v2.87h-16.28ZM669.76,682.68v-18.51h3.41v18.51h-3.41ZM682.68,682.68v-20.85h4.36l6.33,14.52h.43l6.33-14.52h4.36v20.85h-3.3v-17.88l.69.05-6.22,14.1h-4.36l-6.22-14.1.69-.05v17.88h-3.09Z"/>
    </g>
    <g>
      <path class="cls-1" d="M424.6,453.27l-34.91,19.07c4.95-5.12,8.42-9.78,10.4-13.99,1.98-4.21,2.89-8.95,2.72-14.24-.17-5.12.78-9.2,2.85-12.26,2.06-3.05,6.72-4.58,13.99-4.58h13.37v-17.33h-13.37c-16.51,0-27.4,3.22-32.68,9.66-5.29,6.44-7.35,14.61-6.19,24.52.66,6.27-.33,12.59-2.97,18.94-2.64,6.36-7.51,14.32-14.61,23.9l-.25.25v.25h.25l8.17,14.86,8.17-4.46v64.38h22.29v-76.51l31.2-17.09-8.42-15.35Z"/>
      <path class="cls-1" d="M615.02,452.77c-5.28,21.29-9.99,37.68-14.11,49.15-4.13,11.47-9,21.38-14.61,29.71-5.61,8.34-11.56,12.18-17.83,11.51-3.63-.33-6.28-2.97-7.92-7.92-1.65-4.95-2.72-13.37-3.22-25.26v-57.2h-22.04v58.68c0,32.36,8.58,49.86,25.75,52.49,9.24,1.32,17.33-.74,24.27-6.19,6.93-5.45,12.5-12.13,16.71-20.06,4.21-7.92,8.54-19.4,13-34.42v58.93c0,11.72-3.34,19.93-10.03,24.64-6.69,4.71-13.99,7.06-21.91,7.06-5.29,0-10.15-.91-14.61-2.72-4.46-1.82-8.17-3.92-11.14-6.32-2.97-2.39-6.28-5.74-9.9-10.03l-14.12,11.88c4.95,5.94,9.53,10.52,13.74,13.74,4.21,3.22,9.41,6.02,15.6,8.42,6.19,2.39,13,3.67,20.43,3.84,14.36.16,26.95-3.26,37.76-10.28,10.81-7.02,16.22-20.43,16.22-40.24v-109.45h-22.04Z"/>
      <path class="cls-1" d="M524.64,521.73c-1.45-1.63-3.26-2.71-5.41-3.31,4.03-7.71,6.98-16.57,7.28-26.29.08-2.42.06-4.43-.04-6.06-.07-1.1-.01-2.2.02-3.3.05-1.36.01-2.77-.12-4.26-.83-11.06-6.28-18.65-16.34-22.78-10.07-4.12-20.8-5.86-32.19-5.2-10.73.5-20.22,3.14-28.48,7.92-8.26,4.79-14.53,10.81-18.82,18.08l14.11,10.15c3.8-6.44,8.38-11.14,13.74-14.12,5.36-2.97,11.84-4.71,19.44-5.2,10.56-.99,17.95.46,22.16,4.33,4.21,3.88,5.57,7.8,4.09,11.76-1.49,4.62-4.79,7.89-9.91,9.78-5.12,1.9-12.55,3.59-22.29,5.08-.66.16-1.16.25-1.49.25-8.26,1.32-15.44,3.09-21.54,5.32-6.11,2.23-11.19,5.66-15.23,10.28-4.05,4.62-6.15,10.73-6.31,18.32-.17,8.75,2.11,15.64,6.81,20.68,4.71,5.04,10.28,8.38,16.71,10.03,6.44,1.65,12.13,1.98,17.09.99,6.27-1.32,11.55-3.42,15.85-6.32,4.29-2.89,8.58-6.48,12.88-10.77,2.64-2.48,4.66-4.21,6.07-5.2,1.4-.99,2.76-1.4,4.09-1.24,2.31.5,3.55,2.31,3.71,5.45.16,3.14-.66,8.5-2.48,16.1h21.05c1.49-11.39,1.94-20.06,1.36-26-.58-5.94-2.52-10.77-5.82-14.49ZM510.26,505.49s-6.44,14.03-15.46,23.04c-.61.57-1.21,1.13-1.86,1.75-4.79,4.62-9,8.21-12.63,10.77-3.63,2.56-7.68,4-12.13,4.33-6.6.5-11.19-.99-13.74-4.46-2.56-3.47-3.59-7.1-3.09-10.9.82-5.45,3.96-9.37,9.41-11.76,5.45-2.39,13.53-4.58,24.27-6.56,9.41-1.81,16.96-3.67,22.66-5.57.96-.32,1.86-.73,2.76-1.13-.11.31-.18.48-.18.48Z"/>
    </g>
  </g>
  <g>
    <g>
      <circle class="cls-1" cx="500" cy="500" r="435.6"/>
      <path class="cls-1" d="M835.61,838.45v-5.9h33.45v5.9h-33.45ZM848.84,875.41v-38.05h7v38.05h-7ZM875.41,875.41v-42.86h8.96l13.01,29.85h.88l13.01-29.85h8.97v42.86h-6.78v-36.73l1.42.11-12.79,28.97h-8.96l-12.79-28.97,1.42-.11v36.73h-6.34Z"/>
    </g>
    <g>
      <path d="M345.06,403.97l-71.75,39.18c10.18-10.51,17.3-20.1,21.37-28.75,4.07-8.65,5.93-18.4,5.6-29.25-.34-10.51,1.6-18.91,5.85-25.19,4.24-6.27,13.82-9.41,28.75-9.41h27.48v-35.62h-27.48c-33.92,0-56.31,6.62-67.16,19.84-10.86,13.23-15.1,30.02-12.72,50.38,1.35,12.89-.68,25.87-6.11,38.92-5.43,13.06-15.44,29.43-30.02,49.1l-.51.51v.51h.51l16.79,30.53,16.79-9.16v132.3h45.8v-157.23l64.11-35.11-17.3-31.55Z"/>
      <path d="M736.35,402.95c-10.86,43.76-20.53,77.43-29,101-8.48,23.58-18.49,43.93-30.02,61.06-11.54,17.13-23.75,25.02-36.64,23.66-7.46-.68-12.9-6.11-16.28-16.28-3.4-10.18-5.6-27.48-6.62-51.9v-117.54h-45.28v120.59c0,66.49,17.63,102.45,52.92,107.87,18.99,2.71,35.62-1.53,49.87-12.72,14.25-11.19,25.7-24.93,34.35-41.21,8.65-16.28,17.55-39.86,26.71-70.73v121.1c0,24.08-6.87,40.96-20.61,50.63-13.74,9.67-28.75,14.5-45.03,14.5-10.86,0-20.86-1.87-30.02-5.6-9.16-3.74-16.79-8.06-22.9-12.98-6.11-4.92-12.9-11.79-20.35-20.61l-29.01,24.42c10.18,12.21,19.59,21.63,28.24,28.24,8.65,6.62,19.33,12.38,32.06,17.3,12.72,4.91,26.71,7.54,41.98,7.89,29.51.33,55.38-6.7,77.6-21.12,22.22-14.42,33.33-41.98,33.33-82.68v-224.91h-45.29Z"/>
      <path d="M550.63,544.66c-2.97-3.34-6.71-5.56-11.11-6.79,8.29-15.85,14.33-34.06,14.96-54.02.16-4.98.12-9.1-.09-12.46-.14-2.26-.03-4.51.04-6.77.09-2.79.02-5.7-.24-8.75-1.7-22.72-12.9-38.33-33.58-46.81-20.7-8.48-42.74-12.04-66.15-10.69-22.06,1.02-41.56,6.45-58.52,16.28-16.97,9.84-29.85,22.22-38.67,37.14l29,20.86c7.8-13.23,17.21-22.9,28.24-29.01,11.02-6.11,24.34-9.67,39.95-10.68,21.71-2.04,36.89.94,45.54,8.9,8.65,7.98,11.45,16.03,8.39,24.17-3.05,9.5-9.84,16.21-20.35,20.1-10.52,3.9-25.78,7.38-45.8,10.43-1.36.34-2.38.51-3.05.51-16.97,2.72-31.72,6.36-44.27,10.94-12.55,4.58-22.98,11.62-31.29,21.12-8.32,9.5-12.64,22.05-12.98,37.65-.34,17.98,4.33,32.15,13.99,42.49,9.67,10.35,21.12,17.22,34.35,20.61,13.23,3.39,24.93,4.07,35.11,2.04,12.89-2.72,23.74-7.04,32.57-12.98,8.82-5.93,17.64-13.31,26.46-22.13,5.42-5.09,9.58-8.65,12.47-10.68,2.88-2.04,5.68-2.88,8.4-2.55,4.74,1.02,7.29,4.76,7.63,11.19.34,6.45-1.36,17.48-5.09,33.08h43.25c3.05-23.41,3.98-41.22,2.8-53.43-1.19-12.21-5.18-22.13-11.96-29.77ZM521.09,511.28s-13.23,28.83-31.76,47.34c-1.25,1.17-2.49,2.33-3.82,3.6-9.84,9.5-18.49,16.88-25.95,22.13-7.47,5.26-15.77,8.23-24.93,8.9-13.57,1.02-22.98-2.04-28.24-9.16-5.26-7.13-7.38-14.58-6.36-22.39,1.69-11.19,8.14-19.25,19.33-24.17,11.2-4.91,27.81-9.41,49.87-13.48,19.33-3.73,34.86-7.55,46.56-11.45,1.98-.66,3.82-1.5,5.68-2.31-.23.63-.37.99-.37.99Z"/>
    </g>
  </g>
</svg>