<svg xmlns="http://www.w3.org/2000/svg" id="Layer_1" data-name="Layer 1" viewBox="0 0 2158.02 1080">
  <defs>
    <style>
      .cls-1 {
        fill: #161616;
      }
    </style>
  </defs>
  <g>
    <g>
      <circle class="cls-1" cx="403.93" cy="404.41" r="135"/>
      <path class="cls-1" d="M269.65.02c0,74.56,60.44,135,135,135,74.56,0,135-60.44,135-135h-269.99Z"/>
      <path class="cls-1" d="M539.64,270.01c0-74.56-60.44-135-135-135s-135,60.44-135,135h269.99Z"/>
      <path class="cls-1" d="M0,270.01c0,74.56,60.44,135,135,135,74.56,0,135-60.44,135-135H0Z"/>
      <path class="cls-1" d="M269.99,540c0-74.56-60.44-135-135-135C60.44,405,0,465.44,0,540h269.99Z"/>
      <circle class="cls-1" cx="943.75" cy="404.41" r="135"/>
      <path class="cls-1" d="M539.82,270.01c0,74.56,60.44,135,135,135,74.56,0,135-60.44,135-135h-269.99Z"/>
      <path class="cls-1" d="M809.81,540c0-74.56-60.44-135-135-135-74.56,0-135,60.44-135,135h269.99Z"/>
      <path class="cls-1" d="M269.65.02C195.09.02,134.65,60.46,134.65,135.01s60.44,135,135,135V.02Z"/>
      <path class="cls-1" d="M0,270.01c74.56,0,135-60.44,135-135S74.56.02,0,.02v269.99Z"/>
      <path class="cls-1" d="M809.28.02c0,74.56,60.44,135,135,135,74.56,0,135-60.44,135-135h-269.99Z"/>
      <path class="cls-1" d="M1079.27,270.01c0-74.56-60.44-135-135-135s-135,60.44-135,135h269.99Z"/>
      <path class="cls-1" d="M809.28.02c-74.56,0-135,60.44-135,135s60.44,135,135,135V.02Z"/>
      <path class="cls-1" d="M539.64,270.01c74.56,0,135-60.44,135-135S614.19.02,539.64.02v269.99Z"/>
    </g>
    <g>
      <circle class="cls-1" cx="403.93" cy="944.39" r="135"/>
      <path class="cls-1" d="M269.65,540c0,74.56,60.44,135,135,135,74.56,0,135-60.44,135-135h-269.99Z"/>
      <path class="cls-1" d="M539.64,809.99c0-74.56-60.44-135-135-135-74.56,0-135,60.44-135,135h269.99Z"/>
      <path class="cls-1" d="M0,809.99c0,74.56,60.44,135,135,135,74.56,0,135-60.44,135-135H0Z"/>
      <path class="cls-1" d="M269.99,1079.98c0-74.56-60.44-135-135-135S0,1005.42,0,1079.98h269.99Z"/>
      <circle class="cls-1" cx="943.75" cy="944.39" r="135"/>
      <path class="cls-1" d="M539.82,809.99c0,74.56,60.44,135,135,135,74.56,0,135-60.44,135-135h-269.99Z"/>
      <path class="cls-1" d="M809.81,1079.98c0-74.56-60.44-135-135-135s-135,60.44-135,135h269.99Z"/>
      <path class="cls-1" d="M269.65,540c-74.56,0-135,60.44-135,135s60.44,135,135,135v-269.99Z"/>
      <path class="cls-1" d="M0,809.99c74.56,0,135-60.44,135-135S74.56,540,0,540v269.99Z"/>
      <path class="cls-1" d="M809.28,540c0,74.56,60.44,135,135,135,74.56,0,135-60.44,135-135h-269.99Z"/>
      <path class="cls-1" d="M1079.27,809.99c0-74.56-60.44-135-135-135-74.56,0-135,60.44-135,135h269.99Z"/>
      <path class="cls-1" d="M809.28,540c-74.56,0-135,60.44-135,135s60.44,135,135,135v-269.99Z"/>
      <path class="cls-1" d="M539.64,809.99c74.56,0,135-60.44,135-135s-60.44-135-135-135v269.99Z"/>
    </g>
  </g>
  <g>
    <g>
      <circle class="cls-1" cx="1482.67" cy="404.41" r="135"/>
      <path class="cls-1" d="M1348.39.02c0,74.56,60.44,135,135,135,74.56,0,135-60.44,135-135h-269.99Z"/>
      <path class="cls-1" d="M1618.38,270.01c0-74.56-60.44-135-135-135s-135,60.44-135,135h269.99Z"/>
      <path class="cls-1" d="M1078.75,270.01c0,74.56,60.44,135,135,135,74.56,0,135-60.44,135-135h-269.99Z"/>
      <path class="cls-1" d="M1348.74,540c0-74.56-60.44-135-135-135-74.56,0-135,60.44-135,135h269.99Z"/>
      <circle class="cls-1" cx="2022.5" cy="404.41" r="135"/>
      <path class="cls-1" d="M1618.57,270.01c0,74.56,60.44,135,135,135,74.56,0,135-60.44,135-135h-269.99Z"/>
      <path class="cls-1" d="M1888.56,540c0-74.56-60.44-135-135-135-74.56,0-135,60.44-135,135h269.99Z"/>
      <path class="cls-1" d="M1348.39.02c-74.56,0-135,60.44-135,135s60.44,135,135,135V.02Z"/>
      <path class="cls-1" d="M1078.75,270.01c74.56,0,135-60.44,135-135S1153.3.02,1078.75.02v269.99Z"/>
      <path class="cls-1" d="M1888.03.02c0,74.56,60.44,135,135,135,74.56,0,135-60.44,135-135h-269.99Z"/>
      <path class="cls-1" d="M2158.02,270.01c0-74.56-60.44-135-135-135s-135,60.44-135,135h269.99Z"/>
      <path class="cls-1" d="M1888.03.02c-74.56,0-135,60.44-135,135s60.44,135,135,135V.02Z"/>
      <path class="cls-1" d="M1618.38,270.01c74.56,0,135-60.44,135-135S1692.94.02,1618.38.02v269.99Z"/>
    </g>
    <g>
      <circle class="cls-1" cx="1482.67" cy="944.39" r="135"/>
      <path class="cls-1" d="M1348.39,540c0,74.56,60.44,135,135,135,74.56,0,135-60.44,135-135h-269.99Z"/>
      <path class="cls-1" d="M1618.38,809.99c0-74.56-60.44-135-135-135-74.56,0-135,60.44-135,135h269.99Z"/>
      <path class="cls-1" d="M1078.75,809.99c0,74.56,60.44,135,135,135,74.56,0,135-60.44,135-135h-269.99Z"/>
      <path class="cls-1" d="M1348.74,1079.98c0-74.56-60.44-135-135-135s-135,60.44-135,135h269.99Z"/>
      <circle class="cls-1" cx="2022.5" cy="944.39" r="135"/>
      <path class="cls-1" d="M1618.57,809.99c0,74.56,60.44,135,135,135,74.56,0,135-60.44,135-135h-269.99Z"/>
      <path class="cls-1" d="M1888.56,1079.98c0-74.56-60.44-135-135-135s-135,60.44-135,135h269.99Z"/>
      <path class="cls-1" d="M1348.39,540c-74.56,0-135,60.44-135,135s60.44,135,135,135v-269.99Z"/>
      <path class="cls-1" d="M1078.75,809.99c74.56,0,135-60.44,135-135s-60.44-135-135-135v269.99Z"/>
      <path class="cls-1" d="M1888.03,540c0,74.56,60.44,135,135,135,74.56,0,135-60.44,135-135h-269.99Z"/>
      <path class="cls-1" d="M2158.02,809.99c0-74.56-60.44-135-135-135-74.56,0-135,60.44-135,135h269.99Z"/>
      <path class="cls-1" d="M1888.03,540c-74.56,0-135,60.44-135,135s60.44,135,135,135v-269.99Z"/>
      <path class="cls-1" d="M1618.38,809.99c74.56,0,135-60.44,135-135s-60.44-135-135-135v269.99Z"/>
    </g>
  </g>
</svg>